<?xml version="1.0" encoding="UTF-8" standalone="no"?>
<!DOCTYPE svg PUBLIC "-//W3C//DTD SVG 1.1//EN" "http://www.w3.org/Graphics/SVG/1.1/DTD/svg11.dtd">
<svg xmlns="http://www.w3.org/2000/svg" version="1.1" viewBox="0.00 0.00 377.00 205.00">
<g stroke-width="2.00" fill="none" stroke-linecap="butt">
<path stroke="#f6f6f6" vector-effect="non-scaling-stroke" d="
  M 307.75 205.00
  L 310.80 204.53
  Q 311.31 204.45 311.56 204.01
  Q 312.22 202.87 312.74 201.47
  Q 320.65 180.16 321.47 156.49
  C 322.26 133.41 322.71 110.30 320.47 88.04
  Q 318.53 68.78 308.19 52.13"
/>
<path stroke="#e6b084" vector-effect="non-scaling-stroke" d="
  M 308.19 52.13
  Q 308.04 49.34 307.93 46.39
  C 307.64 39.12 304.38 33.45 297.33 30.94
  C 294.71 30.00 289.80 29.98 287.25 29.98
  Q 231.17 30.08 158.00 30.09
  Q 155.04 30.09 151.32 29.92
  A 1.68 1.67 74.4 0 1 150.01 29.18
  C 146.38 23.69 143.91 19.34 137.91 16.98
  Q 135.46 16.02 128.98 16.01
  Q 109.00 15.98 89.01 16.03
  Q 80.96 16.05 78.12 17.05
  C 73.17 18.79 68.08 23.71 68.05 29.50
  Q 68.00 40.63 68.00 51.68"
/>
<path stroke="#f6f6f6" vector-effect="non-scaling-stroke" d="
  M 68.00 51.68
  Q 65.83 53.73 64.26 56.76
  C 56.46 71.75 54.76 86.65 54.42 102.49
  Q 53.91 125.80 54.19 151.17
  Q 54.52 180.37 63.97 205.00"
/>
<path stroke="#dea87c" vector-effect="non-scaling-stroke" d="
  M 308.19 52.13
  L 307.84 59.01"
/>
<path stroke="#cc966d" vector-effect="non-scaling-stroke" d="
  M 307.84 59.01
  Q 306.96 58.17 306.78 56.90"
/>
<path stroke="#af7952" vector-effect="non-scaling-stroke" d="
  M 306.78 56.90
  Q 308.12 50.01 303.70 45.79
  C 298.99 41.29 293.83 40.73 286.78 40.72
  Q 195.55 40.63 89.04 40.81
  C 85.80 40.82 82.81 40.70 79.78 41.53
  Q 71.31 43.83 68.56 52.41
  Q 68.54 52.46 68.49 52.46
  Q 68.37 52.46 68.24 52.46"
/>
<path stroke="#dea87c" vector-effect="non-scaling-stroke" d="
  M 68.24 52.46
  Q 68.02 52.10 68.00 51.68"
/>
<path stroke="#adadb5" vector-effect="non-scaling-stroke" d="
  M 306.78 56.90
  Q 305.05 55.84 303.46 54.60
  C 300.21 52.09 297.10 51.36 293.03 51.36
  Q 195.27 51.27 83.31 51.41
  Q 73.48 51.42 68.20 59.15"
/>
<path stroke="#bfbec4" vector-effect="non-scaling-stroke" d="
  M 68.20 59.15
  L 68.24 52.46"
/>
<path stroke="#dcdcde" vector-effect="non-scaling-stroke" d="
  M 307.84 59.01
  Q 309.91 63.75 309.19 69.08"
/>
<path stroke="#d2d2d4" vector-effect="non-scaling-stroke" d="
  M 309.19 69.08
  C 306.33 67.38 303.43 65.33 300.36 64.48
  Q 296.52 63.43 292.48 63.43
  Q 288.56 63.44 92.87 63.27
  C 81.00 63.26 74.45 62.89 66.49 69.79"
/>
<path stroke="#dcdcde" vector-effect="non-scaling-stroke" d="
  M 66.49 69.79
  Q 65.78 63.69 68.20 59.15"
/>
<path stroke="#e3e3e3" vector-effect="non-scaling-stroke" d="
  M 66.49 69.79
  Q 64.61 75.81 65.48 82.48"
/>
<path stroke="#f3cf84" vector-effect="non-scaling-stroke" d="
  M 65.48 82.48
  Q 57.85 86.27 59.73 94.73"
/>
<path stroke="#f1c883" vector-effect="non-scaling-stroke" d="
  M 59.73 94.73
  L 61.24 112.50"
/>
<path stroke="#eec180" vector-effect="non-scaling-stroke" d="
  M 61.24 112.50
  Q 65.82 166.26 67.37 181.38
  Q 67.63 183.97 70.26 186.00"
/>
<path stroke="#ebbb7f" vector-effect="non-scaling-stroke" d="
  M 70.26 186.00
  Q 74.96 189.92 81.28 190.54"
/>
<path stroke="#e3e3e3" vector-effect="non-scaling-stroke" d="
  M 81.28 190.54
  Q 86.30 198.01 93.47 200.31
  Q 99.21 202.14 104.94 204.00
  Q 106.10 204.37 107.65 204.55
  Q 109.03 204.70 110.38 205.00"
/>
<path stroke="#e3e3e3" vector-effect="non-scaling-stroke" d="
  M 282.98 205.00
  Q 292.70 199.10 299.15 189.69"
/>
<path stroke="#ebbb7f" vector-effect="non-scaling-stroke" d="
  M 299.15 189.69
  Q 310.30 186.36 309.08 174.12"
/>
<path stroke="#eec180" vector-effect="non-scaling-stroke" d="
  M 309.08 174.12
  L 314.68 111.20"
/>
<path stroke="#f1c883" vector-effect="non-scaling-stroke" d="
  M 314.68 111.20
  L 316.36 91.98"
/>
<path stroke="#f3cf84" vector-effect="non-scaling-stroke" d="
  M 316.36 91.98
  Q 317.68 81.45 317.32 78.75
  C 316.69 74.07 313.13 72.36 309.29 70.75"
/>
<path stroke="#e3e3e3" vector-effect="non-scaling-stroke" d="
  M 309.29 70.75
  Q 309.42 69.79 309.19 69.08"
/>
<path stroke="#e9c57a" vector-effect="non-scaling-stroke" d="
  M 309.29 70.75
  Q 305.07 69.37 303.01 69.37
  Q 240.83 69.36 178.66 69.36
  Q 172.55 69.36 170.17 70.16
  C 165.81 71.62 161.24 74.24 160.02 78.60
  Q 159.62 80.03 158.14 80.02
  Q 114.49 79.94 74.27 80.05
  Q 69.84 80.06 65.48 82.48"
/>
<path stroke="#f7aa1a" vector-effect="non-scaling-stroke" d="
  M 316.36 91.98
  C 305.33 94.94 295.62 100.38 285.25 105.24
  C 273.82 110.60 258.16 112.89 245.19 112.99
  C 217.52 113.19 182.65 112.85 146.71 112.82
  C 131.00 112.81 116.10 112.93 101.48 108.76
  C 93.70 106.54 83.12 101.14 76.01 98.47
  Q 69.27 95.94 59.73 94.73"
/>
<path stroke="#f29c16" vector-effect="non-scaling-stroke" d="
  M 314.68 111.20
  C 304.52 116.06 294.77 127.71 281.57 134.04"
/>
<path stroke="#f1c883" vector-effect="non-scaling-stroke" d="
  M 281.57 134.04
  L 281.35 131.56
  Q 281.30 131.05 280.82 130.91
  Q 280.26 130.75 279.46 131.05"
/>
<path stroke="#fad18b" vector-effect="non-scaling-stroke" d="
  M 279.46 131.05
  L 276.97 130.85
  A 0.55 0.55 0.0 0 0 276.37 131.40
  L 276.37 136.63
  Q 276.37 137.14 275.85 137.11
  Q 271.06 136.78 267.96 140.47"
/>
<path stroke="#f29c16" vector-effect="non-scaling-stroke" d="
  M 267.96 140.47
  Q 265.47 140.56 263.96 140.82
  Q 241.13 144.73 216.50 144.80
  Q 186.60 144.88 160.26 144.74
  Q 140.23 144.63 129.59 143.68
  Q 113.45 142.23 98.47 134.10
  C 91.74 130.45 78.10 121.18 69.34 115.89
  Q 65.85 113.78 61.24 112.50"
/>
<path stroke="#eb8f12" vector-effect="non-scaling-stroke" d="
  M 309.08 174.12
  C 303.15 168.61 297.86 166.42 289.42 163.75"
/>
<path stroke="#eec180" vector-effect="non-scaling-stroke" d="
  M 289.42 163.75
  C 293.14 158.73 290.76 151.88 284.63 150.69
  Q 284.37 150.64 281.94 149.96
  A 0.77 0.76 8.1 0 1 281.38 149.23
  L 281.38 143.19
  Q 281.38 141.87 282.70 141.93
  Q 284.09 141.99 285.22 142.73
  Q 286.10 143.30 286.10 144.35
  L 286.10 146.43
  A 0.72 0.71 -0.0 0 0 286.82 147.14
  L 290.53 147.14
  Q 291.32 147.14 291.34 146.35
  Q 291.54 136.81 282.05 136.96
  Q 281.51 136.97 281.52 136.42
  L 281.57 134.04"
/>
<path stroke="#f6c989" vector-effect="non-scaling-stroke" d="
  M 267.96 140.47
  C 264.93 146.79 267.25 151.31 273.62 153.08
  Q 275.10 153.49 275.88 153.68
  Q 276.36 153.79 276.36 154.29
  L 276.36 160.71
  Q 276.36 162.11 274.99 161.80
  L 272.85 161.31
  Q 271.52 161.01 271.52 159.66
  L 271.52 157.48
  Q 271.52 156.74 270.78 156.74
  L 267.23 156.74
  Q 266.51 156.74 266.48 157.46
  Q 266.34 160.69 268.02 163.74"
/>
<path stroke="#eb8f12" vector-effect="non-scaling-stroke" d="
  M 268.02 163.74
  Q 251.05 164.24 234.08 164.13
  Q 179.78 163.78 125.50 164.10
  C 109.42 164.20 100.63 163.94 88.80 166.51
  C 78.03 168.84 74.20 176.60 70.26 186.00"
/>
<path stroke="#f6f6f6" vector-effect="non-scaling-stroke" d="
  M 279.46 131.05
  Q 279.03 133.87 279.02 136.73
  Q 278.91 154.68 278.99 172.74"
/>
<path stroke="#f3c488" vector-effect="non-scaling-stroke" d="
  M 278.99 172.74
  Q 275.71 174.52 276.14 167.08
  Q 276.17 166.59 275.68 166.62
  Q 270.99 166.96 268.02 163.74"
/>
<path stroke="#f6c989" vector-effect="non-scaling-stroke" d="
  M 276.33 148.01
  L 276.39 142.31
  A 0.48 0.48 0.0 0 0 275.91 141.82
  L 275.75 141.82
  A 4.24 3.14 0.6 0 0 271.48 144.91
  L 271.48 145.29
  A 4.24 3.14 0.6 0 0 275.69 148.48
  L 275.85 148.48
  A 0.48 0.48 0.0 0 0 276.33 148.01"
/>
<path stroke="#ebbb7f" vector-effect="non-scaling-stroke" d="
  M 289.42 163.75
  Q 286.61 166.93 282.25 166.73
  A 0.72 0.72 0.0 0 0 281.49 167.45
  L 281.49 172.26
  Q 281.49 172.69 281.07 172.77
  Q 280.07 172.94 278.99 172.74"
/>
<path stroke="#eec180" vector-effect="non-scaling-stroke" d="
  M 281.38 155.92
  L 281.44 161.26
  A 0.54 0.54 0.0 0 0 281.98 161.80
  L 282.19 161.80
  A 3.93 3.17 -0.6 0 0 286.09 158.59
  L 286.09 158.51
  A 3.93 3.17 -0.6 0 0 282.13 155.38
  L 281.92 155.38
  A 0.54 0.54 0.0 0 0 281.38 155.92"
/>
<path stroke="#e1b175" vector-effect="non-scaling-stroke" d="
  M 299.15 189.69
  L 295.08 190.51"
/>
<path stroke="#e58310" vector-effect="non-scaling-stroke" d="
  M 295.08 190.51
  C 290.02 177.90 279.48 173.97 266.90 172.81
  Q 258.36 172.03 251.55 171.89
  C 213.93 171.14 165.73 171.68 128.41 172.07
  Q 117.68 172.18 106.04 173.52
  C 95.27 174.77 85.37 179.74 81.80 190.51"
/>
<path stroke="#e1b175" vector-effect="non-scaling-stroke" d="
  M 81.80 190.51
  Q 81.54 190.52 81.28 190.54"
/>
<path stroke="#ddab74" vector-effect="non-scaling-stroke" d="
  M 295.08 190.51
  L 81.80 190.51"
/>
</g>
<path fill="#fefefe" d="
  M 377.00 0.00
  L 377.00 205.00
  L 307.75 205.00
  L 310.80 204.53
  Q 311.31 204.45 311.56 204.01
  Q 312.22 202.87 312.74 201.47
  Q 320.65 180.16 321.47 156.49
  C 322.26 133.41 322.71 110.30 320.47 88.04
  Q 318.53 68.78 308.19 52.13
  Q 308.04 49.34 307.93 46.39
  C 307.64 39.12 304.38 33.45 297.33 30.94
  C 294.71 30.00 289.80 29.98 287.25 29.98
  Q 231.17 30.08 158.00 30.09
  Q 155.04 30.09 151.32 29.92
  A 1.68 1.67 74.4 0 1 150.01 29.18
  C 146.38 23.69 143.91 19.34 137.91 16.98
  Q 135.46 16.02 128.98 16.01
  Q 109.00 15.98 89.01 16.03
  Q 80.96 16.05 78.12 17.05
  C 73.17 18.79 68.08 23.71 68.05 29.50
  Q 68.00 40.63 68.00 51.68
  Q 65.83 53.73 64.26 56.76
  C 56.46 71.75 54.76 86.65 54.42 102.49
  Q 53.91 125.80 54.19 151.17
  Q 54.52 180.37 63.97 205.00
  L 0.00 205.00
  L 0.00 0.00
  L 377.00 0.00
  Z"
/>
<path fill="#ce620a" d="
  M 308.19 52.13
  L 307.84 59.01
  Q 306.96 58.17 306.78 56.90
  Q 308.12 50.01 303.70 45.79
  C 298.99 41.29 293.83 40.73 286.78 40.72
  Q 195.55 40.63 89.04 40.81
  C 85.80 40.82 82.81 40.70 79.78 41.53
  Q 71.31 43.83 68.56 52.41
  Q 68.54 52.46 68.49 52.46
  Q 68.37 52.46 68.24 52.46
  Q 68.02 52.10 68.00 51.68
  Q 68.00 40.63 68.05 29.50
  C 68.08 23.71 73.17 18.79 78.12 17.05
  Q 80.96 16.05 89.01 16.03
  Q 109.00 15.98 128.98 16.01
  Q 135.46 16.02 137.91 16.98
  C 143.91 19.34 146.38 23.69 150.01 29.18
  A 1.68 1.67 74.4 0 0 151.32 29.92
  Q 155.04 30.09 158.00 30.09
  Q 231.17 30.08 287.25 29.98
  C 289.80 29.98 294.71 30.00 297.33 30.94
  C 304.38 33.45 307.64 39.12 307.93 46.39
  Q 308.04 49.34 308.19 52.13
  Z"
/>
<path fill="#908f9a" d="
  M 306.78 56.90
  Q 305.05 55.84 303.46 54.60
  C 300.21 52.09 297.10 51.36 293.03 51.36
  Q 195.27 51.27 83.31 51.41
  Q 73.48 51.42 68.20 59.15
  L 68.24 52.46
  Q 68.37 52.46 68.49 52.46
  Q 68.54 52.46 68.56 52.41
  Q 71.31 43.83 79.78 41.53
  C 82.81 40.70 85.80 40.82 89.04 40.81
  Q 195.55 40.63 286.78 40.72
  C 293.83 40.73 298.99 41.29 303.70 45.79
  Q 308.12 50.01 306.78 56.90
  Z"
/>
<path fill="#cacacf" d="
  M 306.78 56.90
  Q 306.96 58.17 307.84 59.01
  Q 309.91 63.75 309.19 69.08
  C 306.33 67.38 303.43 65.33 300.36 64.48
  Q 296.52 63.43 292.48 63.43
  Q 288.56 63.44 92.87 63.27
  C 81.00 63.26 74.45 62.89 66.49 69.79
  Q 65.78 63.69 68.20 59.15
  Q 73.48 51.42 83.31 51.41
  Q 195.27 51.27 293.03 51.36
  C 297.10 51.36 300.21 52.09 303.46 54.60
  Q 305.05 55.84 306.78 56.90
  Z"
/>
<path fill="#ededed" d="
  M 68.00 51.68
  Q 68.02 52.10 68.24 52.46
  L 68.20 59.15
  Q 65.78 63.69 66.49 69.79
  Q 64.61 75.81 65.48 82.48
  Q 57.85 86.27 59.73 94.73
  L 61.24 112.50
  Q 65.82 166.26 67.37 181.38
  Q 67.63 183.97 70.26 186.00
  Q 74.96 189.92 81.28 190.54
  Q 86.30 198.01 93.47 200.31
  Q 99.21 202.14 104.94 204.00
  Q 106.10 204.37 107.65 204.55
  Q 109.03 204.70 110.38 205.00
  L 63.97 205.00
  Q 54.52 180.37 54.19 151.17
  Q 53.91 125.80 54.42 102.49
  C 54.76 86.65 56.46 71.75 64.26 56.76
  Q 65.83 53.73 68.00 51.68
  Z"
/>
<path fill="#ededed" d="
  M 307.75 205.00
  L 282.98 205.00
  Q 292.70 199.10 299.15 189.69
  Q 310.30 186.36 309.08 174.12
  L 314.68 111.20
  L 316.36 91.98
  Q 317.68 81.45 317.32 78.75
  C 316.69 74.07 313.13 72.36 309.29 70.75
  Q 309.42 69.79 309.19 69.08
  Q 309.91 63.75 307.84 59.01
  L 308.19 52.13
  Q 318.53 68.78 320.47 88.04
  C 322.71 110.30 322.26 133.41 321.47 156.49
  Q 320.65 180.16 312.74 201.47
  Q 312.22 202.87 311.56 204.01
  Q 311.31 204.45 310.80 204.53
  L 307.75 205.00
  Z"
/>
<path fill="#d9d9d9" d="
  M 309.19 69.08
  Q 309.42 69.79 309.29 70.75
  Q 305.07 69.37 303.01 69.37
  Q 240.83 69.36 178.66 69.36
  Q 172.55 69.36 170.17 70.16
  C 165.81 71.62 161.24 74.24 160.02 78.60
  Q 159.62 80.03 158.14 80.02
  Q 114.49 79.94 74.27 80.05
  Q 69.84 80.06 65.48 82.48
  Q 64.61 75.81 66.49 69.79
  C 74.45 62.89 81.00 63.26 92.87 63.27
  Q 288.56 63.44 292.48 63.43
  Q 296.52 63.43 300.36 64.48
  C 303.43 65.33 306.33 67.38 309.19 69.08
  Z"
/>
<path fill="#f8b01b" d="
  M 309.29 70.75
  C 313.13 72.36 316.69 74.07 317.32 78.75
  Q 317.68 81.45 316.36 91.98
  C 305.33 94.94 295.62 100.38 285.25 105.24
  C 273.82 110.60 258.16 112.89 245.19 112.99
  C 217.52 113.19 182.65 112.85 146.71 112.82
  C 131.00 112.81 116.10 112.93 101.48 108.76
  C 93.70 106.54 83.12 101.14 76.01 98.47
  Q 69.27 95.94 59.73 94.73
  Q 57.85 86.27 65.48 82.48
  Q 69.84 80.06 74.27 80.05
  Q 114.49 79.94 158.14 80.02
  Q 159.62 80.03 160.02 78.60
  C 161.24 74.24 165.81 71.62 170.17 70.16
  Q 172.55 69.36 178.66 69.36
  Q 240.83 69.36 303.01 69.37
  Q 305.07 69.37 309.29 70.75
  Z"
/>
<path fill="#f5a318" d="
  M 316.36 91.98
  L 314.68 111.20
  C 304.52 116.06 294.77 127.71 281.57 134.04
  L 281.35 131.56
  Q 281.30 131.05 280.82 130.91
  Q 280.26 130.75 279.46 131.05
  L 276.97 130.85
  A 0.55 0.55 0.0 0 0 276.37 131.40
  L 276.37 136.63
  Q 276.37 137.14 275.85 137.11
  Q 271.06 136.78 267.96 140.47
  Q 265.47 140.56 263.96 140.82
  Q 241.13 144.73 216.50 144.80
  Q 186.60 144.88 160.26 144.74
  Q 140.23 144.63 129.59 143.68
  Q 113.45 142.23 98.47 134.10
  C 91.74 130.45 78.10 121.18 69.34 115.89
  Q 65.85 113.78 61.24 112.50
  L 59.73 94.73
  Q 69.27 95.94 76.01 98.47
  C 83.12 101.14 93.70 106.54 101.48 108.76
  C 116.10 112.93 131.00 112.81 146.71 112.82
  C 182.65 112.85 217.52 113.19 245.19 112.99
  C 258.16 112.89 273.82 110.60 285.25 105.24
  C 295.62 100.38 305.33 94.94 316.36 91.98
  Z"
/>
<path fill="#ee9413" d="
  M 314.68 111.20
  L 309.08 174.12
  C 303.15 168.61 297.86 166.42 289.42 163.75
  C 293.14 158.73 290.76 151.88 284.63 150.69
  Q 284.37 150.64 281.94 149.96
  A 0.77 0.76 8.1 0 1 281.38 149.23
  L 281.38 143.19
  Q 281.38 141.87 282.70 141.93
  Q 284.09 141.99 285.22 142.73
  Q 286.10 143.30 286.10 144.35
  L 286.10 146.43
  A 0.72 0.71 -0.0 0 0 286.82 147.14
  L 290.53 147.14
  Q 291.32 147.14 291.34 146.35
  Q 291.54 136.81 282.05 136.96
  Q 281.51 136.97 281.52 136.42
  L 281.57 134.04
  C 294.77 127.71 304.52 116.06 314.68 111.20
  Z"
/>
<path fill="#ee9413" d="
  M 267.96 140.47
  C 264.93 146.79 267.25 151.31 273.62 153.08
  Q 275.10 153.49 275.88 153.68
  Q 276.36 153.79 276.36 154.29
  L 276.36 160.71
  Q 276.36 162.11 274.99 161.80
  L 272.85 161.31
  Q 271.52 161.01 271.52 159.66
  L 271.52 157.48
  Q 271.52 156.74 270.78 156.74
  L 267.23 156.74
  Q 266.51 156.74 266.48 157.46
  Q 266.34 160.69 268.02 163.74
  Q 251.05 164.24 234.08 164.13
  Q 179.78 163.78 125.50 164.10
  C 109.42 164.20 100.63 163.94 88.80 166.51
  C 78.03 168.84 74.20 176.60 70.26 186.00
  Q 67.63 183.97 67.37 181.38
  Q 65.82 166.26 61.24 112.50
  Q 65.85 113.78 69.34 115.89
  C 78.10 121.18 91.74 130.45 98.47 134.10
  Q 113.45 142.23 129.59 143.68
  Q 140.23 144.63 160.26 144.74
  Q 186.60 144.88 216.50 144.80
  Q 241.13 144.73 263.96 140.82
  Q 265.47 140.56 267.96 140.47
  Z"
/>
<path fill="#fefefe" d="
  M 279.46 131.05
  Q 279.03 133.87 279.02 136.73
  Q 278.91 154.68 278.99 172.74
  Q 275.71 174.52 276.14 167.08
  Q 276.17 166.59 275.68 166.62
  Q 270.99 166.96 268.02 163.74
  Q 266.34 160.69 266.48 157.46
  Q 266.51 156.74 267.23 156.74
  L 270.78 156.74
  Q 271.52 156.74 271.52 157.48
  L 271.52 159.66
  Q 271.52 161.01 272.85 161.31
  L 274.99 161.80
  Q 276.36 162.11 276.36 160.71
  L 276.36 154.29
  Q 276.36 153.79 275.88 153.68
  Q 275.10 153.49 273.62 153.08
  C 267.25 151.31 264.93 146.79 267.96 140.47
  Q 271.06 136.78 275.85 137.11
  Q 276.37 137.14 276.37 136.63
  L 276.37 131.40
  A 0.55 0.55 0.0 0 1 276.97 130.85
  L 279.46 131.05
  Z
  M 276.33 148.01
  L 276.39 142.31
  A 0.48 0.48 0.0 0 0 275.91 141.82
  L 275.75 141.82
  A 4.24 3.14 0.6 0 0 271.48 144.91
  L 271.48 145.29
  A 4.24 3.14 0.6 0 0 275.69 148.48
  L 275.85 148.48
  A 0.48 0.48 0.0 0 0 276.33 148.01
  Z"
/>
<path fill="#ededed" d="
  M 281.57 134.04
  L 281.52 136.42
  Q 281.51 136.97 282.05 136.96
  Q 291.54 136.81 291.34 146.35
  Q 291.32 147.14 290.53 147.14
  L 286.82 147.14
  A 0.72 0.71 0.0 0 1 286.10 146.43
  L 286.10 144.35
  Q 286.10 143.30 285.22 142.73
  Q 284.09 141.99 282.70 141.93
  Q 281.38 141.87 281.38 143.19
  L 281.38 149.23
  A 0.77 0.76 8.1 0 0 281.94 149.96
  Q 284.37 150.64 284.63 150.69
  C 290.76 151.88 293.14 158.73 289.42 163.75
  Q 286.61 166.93 282.25 166.73
  A 0.72 0.72 0.0 0 0 281.49 167.45
  L 281.49 172.26
  Q 281.49 172.69 281.07 172.77
  Q 280.07 172.94 278.99 172.74
  Q 278.91 154.68 279.02 136.73
  Q 279.03 133.87 279.46 131.05
  Q 280.26 130.75 280.82 130.91
  Q 281.30 131.05 281.35 131.56
  L 281.57 134.04
  Z
  M 281.38 155.92
  L 281.44 161.26
  A 0.54 0.54 0.0 0 0 281.98 161.80
  L 282.19 161.80
  A 3.93 3.17 -0.6 0 0 286.09 158.59
  L 286.09 158.51
  A 3.93 3.17 -0.6 0 0 282.13 155.38
  L 281.92 155.38
  A 0.54 0.54 0.0 0 0 281.38 155.92
  Z"
/>
<path fill="#ee9413" d="
  M 276.33 148.01
  A 0.48 0.48 0.0 0 1 275.85 148.48
  L 275.69 148.48
  A 4.24 3.14 0.6 0 1 271.48 145.29
  L 271.48 144.91
  A 4.24 3.14 0.6 0 1 275.75 141.82
  L 275.91 141.82
  A 0.48 0.48 0.0 0 1 276.39 142.31
  L 276.33 148.01
  Z"
/>
<path fill="#ee9413" d="
  M 281.38 155.92
  A 0.54 0.54 0.0 0 1 281.92 155.38
  L 282.13 155.38
  A 3.93 3.17 -0.6 0 1 286.09 158.51
  L 286.09 158.59
  A 3.93 3.17 -0.6 0 1 282.19 161.80
  L 281.98 161.80
  A 0.54 0.54 0.0 0 1 281.44 161.26
  L 281.38 155.92
  Z"
/>
<path fill="#e88911" d="
  M 268.02 163.74
  Q 270.99 166.96 275.68 166.62
  Q 276.17 166.59 276.14 167.08
  Q 275.71 174.52 278.99 172.74
  Q 280.07 172.94 281.07 172.77
  Q 281.49 172.69 281.49 172.26
  L 281.49 167.45
  A 0.72 0.72 0.0 0 1 282.25 166.73
  Q 286.61 166.93 289.42 163.75
  C 297.86 166.42 303.15 168.61 309.08 174.12
  Q 310.30 186.36 299.15 189.69
  L 295.08 190.51
  C 290.02 177.90 279.48 173.97 266.90 172.81
  Q 258.36 172.03 251.55 171.89
  C 213.93 171.14 165.73 171.68 128.41 172.07
  Q 117.68 172.18 106.04 173.52
  C 95.27 174.77 85.37 179.74 81.80 190.51
  Q 81.54 190.52 81.28 190.54
  Q 74.96 189.92 70.26 186.00
  C 74.20 176.60 78.03 168.84 88.80 166.51
  C 100.63 163.94 109.42 164.20 125.50 164.10
  Q 179.78 163.78 234.08 164.13
  Q 251.05 164.24 268.02 163.74
  Z"
/>
<path fill="#e17d0e" d="
  M 295.08 190.51
  L 81.80 190.51
  C 85.37 179.74 95.27 174.77 106.04 173.52
  Q 117.68 172.18 128.41 172.07
  C 165.73 171.68 213.93 171.14 251.55 171.89
  Q 258.36 172.03 266.90 172.81
  C 279.48 173.97 290.02 177.90 295.08 190.51
  Z"
/>
<path fill="#d9d9d9" d="
  M 299.15 189.69
  Q 292.70 199.10 282.98 205.00
  L 110.38 205.00
  Q 109.03 204.70 107.65 204.55
  Q 106.10 204.37 104.94 204.00
  Q 99.21 202.14 93.47 200.31
  Q 86.30 198.01 81.28 190.54
  Q 81.54 190.52 81.80 190.51
  L 295.08 190.51
  L 299.15 189.69
  Z"
/>
</svg>
