<?xml version="1.0" encoding="UTF-8" standalone="no"?>
<!DOCTYPE svg PUBLIC "-//W3C//DTD SVG 1.1//EN" "http://www.w3.org/Graphics/SVG/1.1/DTD/svg11.dtd">
<svg xmlns="http://www.w3.org/2000/svg" version="1.1" viewBox="0.00 0.00 377.00 205.00">
<g stroke-width="2.00" fill="none" stroke-linecap="butt">
<path stroke="#f6f6f6" vector-effect="non-scaling-stroke" d="
  M 307.83 205.00
  C 309.43 204.60 311.26 205.10 311.94 203.39
  C 320.17 182.72 322.28 161.38 321.71 138.39"
/>
<path stroke="#7f7f7f" vector-effect="non-scaling-stroke" d="
  M 321.71 138.39
  L 350.66 133.58
  A 0.50 0.49 -9.2 0 0 351.08 133.01
  L 340.02 66.30
  A 0.30 0.30 0.0 0 0 339.67 66.05
  L 316.19 69.94"
/>
<path stroke="#f6f6f6" vector-effect="non-scaling-stroke" d="
  M 316.19 69.94
  Q 314.11 60.62 308.26 52.81"
/>
<path stroke="#e6b084" vector-effect="non-scaling-stroke" d="
  M 308.26 52.81
  Q 307.97 50.54 307.94 47.60
  Q 307.91 43.90 307.58 42.47
  C 306.16 36.31 301.33 31.26 294.86 30.43
  Q 291.43 29.99 289.00 29.99
  Q 231.62 30.08 156.00 30.06
  Q 153.26 30.05 151.23 29.90
  Q 150.41 29.83 149.98 29.14
  C 146.96 24.31 143.64 19.02 137.92 17.00
  Q 135.12 16.01 128.98 16.00
  Q 113.56 15.96 91.92 16.04
  Q 81.83 16.07 80.13 16.46
  C 74.04 17.84 67.97 23.13 67.99 30.00
  Q 68.01 40.63 67.99 51.18"
/>
<path stroke="#f6f6f6" vector-effect="non-scaling-stroke" d="
  M 67.99 51.18
  Q 65.56 54.00 63.92 57.21
  C 55.03 74.63 54.28 92.28 54.18 113.35"
/>
<path stroke="#7f7f7f" vector-effect="non-scaling-stroke" d="
  M 54.18 113.35
  L 25.52 118.10
  A 0.54 0.54 0.0 0 0 25.08 118.72
  L 36.11 185.27
  A 0.44 0.44 0.0 0 0 36.61 185.63
  L 57.55 182.17"
/>
<path stroke="#f6f6f6" vector-effect="non-scaling-stroke" d="
  M 57.55 182.17
  Q 59.37 193.98 64.06 205.00"
/>
<path stroke="#dea87c" vector-effect="non-scaling-stroke" d="
  M 308.26 52.81
  L 307.84 59.02"
/>
<path stroke="#cc966d" vector-effect="non-scaling-stroke" d="
  M 307.84 59.02
  Q 306.96 58.01 306.75 57.17"
/>
<path stroke="#af7952" vector-effect="non-scaling-stroke" d="
  M 306.75 57.17
  Q 308.08 50.24 304.21 46.27
  C 298.71 40.64 292.71 40.72 283.94 40.72
  Q 188.97 40.65 94.01 40.80
  Q 82.14 40.82 79.55 41.55
  Q 71.65 43.77 68.37 52.49"
/>
<path stroke="#dea87c" vector-effect="non-scaling-stroke" d="
  M 68.37 52.49
  Q 67.90 52.03 67.99 51.18"
/>
<path stroke="#adadb5" vector-effect="non-scaling-stroke" d="
  M 306.75 57.17
  Q 300.95 51.40 294.25 51.38
  Q 238.86 51.22 83.12 51.40
  Q 73.47 51.42 68.21 59.15"
/>
<path stroke="#bfbec4" vector-effect="non-scaling-stroke" d="
  M 68.21 59.15
  L 68.37 52.49"
/>
<path stroke="#dcdcde" vector-effect="non-scaling-stroke" d="
  M 68.21 59.15
  Q 65.75 63.74 66.51 69.64"
/>
<path stroke="#e3e3e3" vector-effect="non-scaling-stroke" d="
  M 66.51 69.64
  C 65.50 72.68 64.44 78.98 65.78 82.33"
/>
<path stroke="#f3cf84" vector-effect="non-scaling-stroke" d="
  M 65.78 82.33
  Q 61.83 84.06 60.28 87.40
  Q 59.27 89.59 59.67 94.34
  Q 60.43 103.27 61.08 112.22"
/>
<path stroke="#777777" vector-effect="non-scaling-stroke" d="
  M 61.08 112.22
  L 54.18 113.35"
/>
<path stroke="#dcdcde" vector-effect="non-scaling-stroke" d="
  M 307.84 59.02
  Q 309.96 63.80 309.15 69.42"
/>
<path stroke="#d2d2d4" vector-effect="non-scaling-stroke" d="
  M 309.15 69.42
  Q 302.09 63.39 292.96 63.39
  Q 188.14 63.35 83.33 63.44
  C 75.90 63.45 72.55 65.39 66.51 69.64"
/>
<path stroke="#777777" vector-effect="non-scaling-stroke" d="
  M 316.19 69.94
  L 309.81 70.99"
/>
<path stroke="#e3e3e3" vector-effect="non-scaling-stroke" d="
  M 309.81 70.99
  L 309.15 69.42"
/>
<path stroke="#6d6d6d" vector-effect="non-scaling-stroke" d="
  M 309.81 70.99
  L 309.04 71.11"
/>
<path stroke="#e9c57a" vector-effect="non-scaling-stroke" d="
  M 309.04 71.11
  Q 306.02 69.38 301.00 69.38
  Q 239.73 69.36 178.45 69.36
  Q 172.66 69.36 170.37 70.10
  C 165.84 71.56 161.25 74.17 159.95 78.85
  A 1.59 1.57 -81.8 0 1 158.42 80.01
  Q 120.06 79.92 74.75 80.09
  Q 69.91 80.11 65.78 82.33"
/>
<path stroke="#777777" vector-effect="non-scaling-stroke" d="
  M 321.71 138.39
  L 312.05 139.99"
/>
<path stroke="#7b510c" vector-effect="non-scaling-stroke" d="
  M 312.05 139.99
  L 172.40 163.16"
/>
<path stroke="#764509" vector-effect="non-scaling-stroke" d="
  M 172.40 163.16
  L 123.60 171.59"
/>
<path stroke="#6d3a07" vector-effect="non-scaling-stroke" d="
  M 123.60 171.59
  L 92.47 176.46"
/>
<path stroke="#764509" vector-effect="non-scaling-stroke" d="
  M 92.47 176.46
  L 72.53 179.71"
/>
<path stroke="#7b510c" vector-effect="non-scaling-stroke" d="
  M 72.53 179.71
  L 67.22 180.57"
/>
<path stroke="#777777" vector-effect="non-scaling-stroke" d="
  M 67.22 180.57
  L 57.55 182.17"
/>
<path stroke="#7c580e" vector-effect="non-scaling-stroke" d="
  M 61.08 112.22
  L 309.04 71.11"
/>
<path stroke="#7f7f7f" vector-effect="non-scaling-stroke" d="
  M 314.71 94.34
  Q 304.35 96.06 303.96 96.14
  Q 303.27 96.29 303.35 96.75
  L 304.01 100.71
  Q 304.11 101.29 304.69 101.20
  L 311.70 100.04
  A 0.59 0.59 0.0 0 1 312.38 100.53
  L 315.48 119.23
  Q 315.57 119.74 316.08 119.72
  Q 316.99 119.70 318.85 119.39
  Q 320.72 119.09 321.58 118.81
  Q 322.07 118.66 321.99 118.15
  L 318.90 99.45
  A 0.59 0.59 0.0 0 1 319.39 98.77
  L 326.40 97.61
  Q 326.97 97.50 326.88 96.92
  L 326.23 92.96
  Q 326.16 92.50 325.46 92.58
  Q 325.06 92.63 314.71 94.34"
/>
<path stroke="#7f7f7f" vector-effect="non-scaling-stroke" d="
  M 280.37 113.16
  C 281.63 119.93 285.99 124.53 293.31 123.95
  C 299.04 123.49 303.48 120.61 304.40 114.85
  Q 304.45 114.54 304.13 114.49
  L 298.68 113.68
  Q 298.36 113.63 298.32 113.95
  Q 297.56 119.07 292.43 118.67
  C 288.89 118.39 287.58 114.96 287.02 111.92
  C 286.45 108.88 286.43 105.20 289.64 103.67
  Q 294.28 101.45 296.83 105.95
  Q 296.98 106.24 297.27 106.08
  L 302.06 103.36
  Q 302.34 103.20 302.18 102.93
  C 299.25 97.88 294.07 96.79 288.56 98.43
  C 281.52 100.52 279.11 106.38 280.37 113.16"
/>
<path stroke="#7f7f7f" vector-effect="non-scaling-stroke" d="
  M 257.69 116.73
  Q 259.18 125.33 259.71 128.53
  Q 259.81 129.15 260.43 129.04
  L 279.11 125.95
  A 0.46 0.46 0.0 0 0 279.48 125.42
  L 278.79 121.25
  Q 278.72 120.82 278.29 120.89
  L 266.03 122.93
  Q 265.47 123.02 265.39 122.49
  L 264.72 118.49
  A 0.53 0.52 81.2 0 1 265.15 117.89
  L 274.50 116.27
  Q 274.89 116.20 274.78 115.53
  Q 274.78 115.52 274.49 113.83
  Q 274.20 112.14 274.20 112.14
  Q 274.07 111.47 273.68 111.54
  L 264.33 113.15
  A 0.53 0.52 79.2 0 1 263.72 112.73
  L 263.01 108.73
  Q 262.91 108.21 263.47 108.10
  L 275.70 105.91
  Q 276.13 105.83 276.05 105.41
  L 275.31 101.25
  A 0.46 0.46 0.0 0 0 274.78 100.87
  L 256.14 104.23
  Q 255.52 104.33 255.63 104.95
  Q 256.21 108.14 257.69 116.73"
/>
<path stroke="#7f7f7f" vector-effect="non-scaling-stroke" d="
  M 243.34 126.98
  C 240.20 127.35 239.38 124.38 239.54 121.44
  A 0.31 0.31 0.0 0 0 239.11 121.14
  L 233.44 123.52
  Q 233.24 123.61 233.25 123.82
  C 233.58 130.26 237.68 133.12 243.63 132.19
  C 250.20 131.16 254.28 127.71 253.09 120.42
  Q 251.82 112.64 250.60 105.32
  Q 250.55 105.00 250.22 105.05
  L 244.31 106.03
  Q 243.98 106.09 244.04 106.41
  Q 246.47 120.45 246.66 122.55
  Q 247.02 126.55 243.34 126.98"
/>
<path stroke="#7f7f7f" vector-effect="non-scaling-stroke" d="
  M 229.3824 119.5660
  A 11.27 11.27 0.0 0 0 216.3586 110.3787
  L 214.2696 110.7395
  A 11.27 11.27 0.0 0 0 205.0823 123.7633
  L 205.6576 127.0940
  A 11.27 11.27 0.0 0 0 218.6814 136.2813
  L 220.7704 135.9205
  A 11.27 11.27 0.0 0 0 229.9577 122.8967
  L 229.3824 119.5660"
/>
<path stroke="#7f7f7f" vector-effect="non-scaling-stroke" d="
  M 187.92 131.69
  L 190.79 131.21
  Q 191.33 131.12 191.67 131.54
  L 198.02 139.15
  Q 198.19 139.36 198.45 139.32
  L 205.24 138.19
  A 0.08 0.07 -24.1 0 0 205.29 138.07
  L 197.51 129.50
  A 0.34 0.33 -37.1 0 1 197.59 128.98
  C 201.31 126.76 202.09 122.35 200.21 118.69
  Q 198.02 114.44 191.99 114.82
  Q 189.66 114.96 178.68 116.95
  Q 178.39 117.00 178.44 117.29
  L 182.42 141.32
  Q 182.52 141.95 183.15 141.85
  L 188.52 140.96
  A 0.43 0.42 80.4 0 0 188.86 140.47
  L 187.50 132.27
  A 0.51 0.51 0.0 0 1 187.92 131.69"
/>
<path stroke="#7f7f7f" vector-effect="non-scaling-stroke" d="
  M 162.84 136.71
  Q 165.51 136.22 167.41 135.89
  C 172.70 135.00 176.76 131.63 175.56 125.72
  C 174.72 121.58 171.59 118.79 167.31 119.05
  Q 163.62 119.27 153.61 121.13
  Q 153.09 121.23 153.18 121.75
  L 157.17 145.84
  A 0.33 0.32 -9.5 0 0 157.55 146.11
  L 163.43 145.14
  Q 163.71 145.09 163.66 144.81
  L 162.42 137.31
  Q 162.34 136.80 162.84 136.71"
/>
<path stroke="#7f7f7f" vector-effect="non-scaling-stroke" d="
  M 120.89 126.49
  Q 119.82 126.67 118.90 126.91
  Q 118.39 127.05 118.35 127.58
  L 116.94 146.54
  Q 116.80 148.43 116.07 146.69
  L 108.64 128.98
  Q 108.45 128.55 107.99 128.63
  L 103.41 129.38
  Q 103.00 129.45 103.18 129.83
  L 114.19 152.78
  Q 114.42 153.27 114.95 153.18
  L 119.78 152.38
  Q 120.31 152.29 120.37 151.75
  Q 121.41 142.39 121.66 133.23
  Q 121.67 132.62 121.91 132.58
  Q 122.14 132.54 122.36 133.12
  Q 125.56 141.70 129.57 150.22
  Q 129.80 150.71 130.33 150.62
  L 135.16 149.82
  Q 135.69 149.73 135.75 149.19
  L 138.74 123.91
  Q 138.78 123.50 138.37 123.56
  L 133.80 124.34
  Q 133.34 124.41 133.29 124.88
  L 132.00 144.04
  Q 131.87 145.92 131.13 144.18
  L 123.65 126.70
  Q 123.45 126.21 122.92 126.24
  Q 121.96 126.31 120.89 126.49"
/>
<path stroke="#7f7f7f" vector-effect="non-scaling-stroke" d="
  M 99.17 141.17
  A 0.40 0.40 0.0 0 0 98.70 140.84
  L 88.87 142.47
  A 0.40 0.40 0.0 0 1 88.40 142.14
  L 87.52 136.75
  A 0.40 0.40 0.0 0 1 87.84 136.29
  L 100.56 134.19
  A 0.40 0.40 0.0 0 0 100.89 133.73
  L 100.33 130.33
  A 0.40 0.40 0.0 0 0 99.87 130.00
  L 81.87 132.97
  A 0.40 0.40 0.0 0 0 81.55 133.43
  L 85.55 157.62
  A 0.40 0.40 0.0 0 0 86.01 157.94
  L 104.52 154.89
  A 0.40 0.40 0.0 0 0 104.84 154.43
  L 104.28 150.99
  A 0.40 0.40 0.0 0 0 103.82 150.67
  L 90.55 152.86
  A 0.40 0.40 0.0 0 1 90.09 152.54
  L 89.18 146.99
  A 0.40 0.40 0.0 0 1 89.50 146.53
  L 99.38 144.91
  A 0.40 0.40 0.0 0 0 99.71 144.45
  L 99.17 141.17"
/>
<path stroke="#7f7f7f" vector-effect="non-scaling-stroke" d="
  M 68.15 146.95
  Q 65.76 144.11 59.70 136.98
  A 0.76 0.75 64.8 0 0 59.00 136.72
  L 54.05 137.54
  Q 53.48 137.64 53.57 138.21
  L 57.59 162.41
  Q 57.63 162.68 57.89 162.63
  L 61.96 161.96
  Q 62.31 161.90 62.25 161.55
  L 59.34 143.97
  Q 59.23 143.30 59.64 143.84
  Q 61.90 146.80 64.44 149.81
  Q 66.83 152.66 72.89 159.78
  A 0.76 0.75 64.8 0 0 73.59 160.04
  L 78.54 159.22
  Q 79.11 159.12 79.02 158.55
  L 75.00 134.35
  Q 74.96 134.08 74.70 134.13
  L 70.63 134.80
  Q 70.28 134.86 70.34 135.21
  L 73.25 152.79
  Q 73.36 153.46 72.95 152.92
  Q 70.69 149.96 68.15 146.95"
/>
<path stroke="#7f7f7f" vector-effect="non-scaling-stroke" d="
  M 218.8202 131.2962
  A 8.07 5.84 80.8 0 0 223.2949 122.3963
  A 8.07 5.84 80.8 0 0 216.2398 115.3638
  A 8.07 5.84 80.8 0 0 211.7651 124.2637
  A 8.07 5.84 80.8 0 0 218.8202 131.2962"
/>
<path stroke="#7f7f7f" vector-effect="non-scaling-stroke" d="
  M 185.66 121.23
  L 186.57 126.75
  A 0.42 0.42 0.0 0 0 187.06 127.10
  L 191.70 126.33
  A 3.43 2.81 -9.4 0 0 194.63 123.00
  L 194.50 122.19
  A 3.43 2.81 -9.4 0 0 190.65 119.97
  L 186.01 120.74
  A 0.42 0.42 0.0 0 0 185.66 121.23"
/>
<path stroke="#7f7f7f" vector-effect="non-scaling-stroke" d="
  M 160.45 125.30
  L 161.46 131.51
  A 0.33 0.33 0.0 0 0 161.84 131.79
  L 166.15 131.08
  A 3.54 3.29 -9.3 0 0 169.12 127.26
  L 169.06 126.89
  A 3.54 3.29 -9.3 0 0 165.03 124.21
  L 160.72 124.92
  A 0.33 0.33 0.0 0 0 160.45 125.30"
/>
<path stroke="#e3e3e3" vector-effect="non-scaling-stroke" d="
  M 283.01 205.00
  Q 292.74 198.95 299.36 189.59"
/>
<path stroke="#ecbc7f" vector-effect="non-scaling-stroke" d="
  M 299.36 189.59
  Q 310.34 186.22 309.03 174.28"
/>
<path stroke="#f1c782" vector-effect="non-scaling-stroke" d="
  M 309.03 174.28
  L 312.05 139.99"
/>
<path stroke="#f09614" vector-effect="non-scaling-stroke" d="
  M 309.03 174.28
  Q 305.04 170.46 300.54 167.69
  Q 296.18 165.00 290.68 165.02"
/>
<path stroke="#f1c782" vector-effect="non-scaling-stroke" d="
  M 290.68 165.02
  Q 291.24 163.00 291.07 161.11
  A 0.65 0.65 0.0 0 1 291.75 160.40
  Q 295.08 160.61 294.46 163.60
  A 0.55 0.55 0.0 0 0 294.95 164.26
  L 297.80 164.47
  A 0.64 0.64 0.0 0 0 298.49 163.85
  Q 298.67 156.51 291.54 156.63
  Q 290.82 156.64 290.88 155.92
  L 291.11 152.79
  A 0.66 0.65 11.3 0 0 290.65 152.12
  Q 289.89 151.89 289.07 152.07"
/>
<path stroke="#fad08b" vector-effect="non-scaling-stroke" d="
  M 289.07 152.07
  Q 286.53 150.87 287.02 156.06
  Q 287.07 156.57 286.57 156.72
  Q 286.22 156.82 285.86 156.83
  C 281.88 156.97 279.63 159.55 279.59 163.55"
/>
<path stroke="#f09614" vector-effect="non-scaling-stroke" d="
  M 279.59 163.55
  C 276.97 163.79 274.32 164.12 271.70 164.11
  Q 210.49 163.85 180.77 163.88
  Q 176.09 163.88 172.40 163.16"
/>
<path stroke="#f6f6f6" vector-effect="non-scaling-stroke" d="
  M 289.07 152.07
  L 289.20 183.90"
/>
<path stroke="#ecb986" vector-effect="non-scaling-stroke" d="
  M 289.20 183.90
  Q 288.43 184.11 287.58 183.95
  Q 286.96 183.83 287.00 183.20
  L 287.24 180.08
  Q 287.28 179.51 286.73 179.35
  Q 285.77 179.06 285.00 179.01
  Q 280.79 178.73 279.77 174.83"
/>
<path stroke="#f5c488" vector-effect="non-scaling-stroke" d="
  M 279.77 174.83
  L 279.58 172.38
  Q 279.52 171.59 280.31 171.65
  L 283.02 171.85
  Q 283.54 171.89 283.41 172.40
  C 282.87 174.58 284.37 175.83 286.37 175.55
  Q 286.90 175.48 286.94 174.94
  L 287.29 170.16
  Q 287.34 169.57 286.78 169.41
  C 283.39 168.39 280.45 167.92 279.59 163.55"
/>
<path stroke="#fad08b" vector-effect="non-scaling-stroke" d="
  M 287.13 165.00
  L 287.11 160.84
  A 0.45 0.45 0.0 0 0 286.66 160.39
  L 286.49 160.39
  A 3.08 2.36 -0.3 0 0 283.42 162.77
  L 283.42 163.11
  A 3.08 2.36 -0.3 0 0 286.51 165.45
  L 286.68 165.45
  A 0.45 0.45 0.0 0 0 287.13 165.00"
/>
<path stroke="#ecbc7f" vector-effect="non-scaling-stroke" d="
  M 290.68 165.02
  Q 291.86 166.62 294.53 167.85
  Q 296.97 168.98 297.69 170.12
  C 300.44 174.49 296.39 179.37 291.69 179.36
  Q 291.18 179.35 291.11 179.86
  Q 290.82 181.77 291.15 183.49"
/>
<path stroke="#e3b07e" vector-effect="non-scaling-stroke" d="
  M 291.15 183.49
  Q 290.89 184.20 289.20 183.90"
/>
<path stroke="#ecbc7f" vector-effect="non-scaling-stroke" d="
  M 291.03 171.23
  L 291.03 175.07
  A 0.49 0.49 0.0 0 0 291.52 175.56
  L 291.73 175.56
  A 2.76 2.34 0.0 0 0 294.49 173.22
  L 294.49 173.08
  A 2.76 2.34 -0.0 0 0 291.73 170.74
  L 291.52 170.74
  A 0.49 0.49 0.0 0 0 291.03 171.23"
/>
<path stroke="#e27f10" vector-effect="non-scaling-stroke" d="
  M 279.77 174.83
  C 273.46 173.74 267.21 172.63 260.83 172.29
  Q 244.72 171.42 226.75 171.56
  Q 198.84 171.76 123.60 171.59"
/>
<path stroke="#e2b275" vector-effect="non-scaling-stroke" d="
  M 299.36 189.59
  L 295.30 190.51"
/>
<path stroke="#e27f10" vector-effect="non-scaling-stroke" d="
  M 295.30 190.51
  Q 293.99 186.32 291.15 183.49"
/>
<path stroke="#d9a674" vector-effect="non-scaling-stroke" d="
  M 295.30 190.51
  L 81.72 190.50"
/>
<path stroke="#e27f10" vector-effect="non-scaling-stroke" d="
  M 81.72 190.50
  C 83.28 183.79 88.60 180.63 92.47 176.46"
/>
<path stroke="#e2b275" vector-effect="non-scaling-stroke" d="
  M 81.72 190.50
  Q 81.53 190.55 81.21 190.51"
/>
<path stroke="#ecbc7f" vector-effect="non-scaling-stroke" d="
  M 81.21 190.51
  Q 74.95 189.90 70.44 186.12"
/>
<path stroke="#f09614" vector-effect="non-scaling-stroke" d="
  M 70.44 186.12
  L 72.53 179.71"
/>
<path stroke="#f1c782" vector-effect="non-scaling-stroke" d="
  M 70.44 186.12
  Q 67.71 184.16 67.22 180.57"
/>
<path stroke="#e3e3e3" vector-effect="non-scaling-stroke" d="
  M 81.21 190.51
  Q 85.69 197.14 92.77 199.98
  Q 96.61 201.52 104.13 203.61
  Q 104.43 203.69 104.70 204.00
  Q 105.01 204.34 105.48 204.40
  L 110.38 205.00"
/>
</g>
<path fill="#fefefe" d="
  M 377.00 0.00
  L 377.00 205.00
  L 307.83 205.00
  C 309.43 204.60 311.26 205.10 311.94 203.39
  C 320.17 182.72 322.28 161.38 321.71 138.39
  L 350.66 133.58
  A 0.50 0.49 -9.2 0 0 351.08 133.01
  L 340.02 66.30
  A 0.30 0.30 0.0 0 0 339.67 66.05
  L 316.19 69.94
  Q 314.11 60.62 308.26 52.81
  Q 307.97 50.54 307.94 47.60
  Q 307.91 43.90 307.58 42.47
  C 306.16 36.31 301.33 31.26 294.86 30.43
  Q 291.43 29.99 289.00 29.99
  Q 231.62 30.08 156.00 30.06
  Q 153.26 30.05 151.23 29.90
  Q 150.41 29.83 149.98 29.14
  C 146.96 24.31 143.64 19.02 137.92 17.00
  Q 135.12 16.01 128.98 16.00
  Q 113.56 15.96 91.92 16.04
  Q 81.83 16.07 80.13 16.46
  C 74.04 17.84 67.97 23.13 67.99 30.00
  Q 68.01 40.63 67.99 51.18
  Q 65.56 54.00 63.92 57.21
  C 55.03 74.63 54.28 92.28 54.18 113.35
  L 25.52 118.10
  A 0.54 0.54 0.0 0 0 25.08 118.72
  L 36.11 185.27
  A 0.44 0.44 0.0 0 0 36.61 185.63
  L 57.55 182.17
  Q 59.37 193.98 64.06 205.00
  L 0.00 205.00
  L 0.00 0.00
  L 377.00 0.00
  Z"
/>
<path fill="#ce620a" d="
  M 308.26 52.81
  L 307.84 59.02
  Q 306.96 58.01 306.75 57.17
  Q 308.08 50.24 304.21 46.27
  C 298.71 40.64 292.71 40.72 283.94 40.72
  Q 188.97 40.65 94.01 40.80
  Q 82.14 40.82 79.55 41.55
  Q 71.65 43.77 68.37 52.49
  Q 67.90 52.03 67.99 51.18
  Q 68.01 40.63 67.99 30.00
  C 67.97 23.13 74.04 17.84 80.13 16.46
  Q 81.83 16.07 91.92 16.04
  Q 113.56 15.96 128.98 16.00
  Q 135.12 16.01 137.92 17.00
  C 143.64 19.02 146.96 24.31 149.98 29.14
  Q 150.41 29.83 151.23 29.90
  Q 153.26 30.05 156.00 30.06
  Q 231.62 30.08 289.00 29.99
  Q 291.43 29.99 294.86 30.43
  C 301.33 31.26 306.16 36.31 307.58 42.47
  Q 307.91 43.90 307.94 47.60
  Q 307.97 50.54 308.26 52.81
  Z"
/>
<path fill="#908f9a" d="
  M 306.75 57.17
  Q 300.95 51.40 294.25 51.38
  Q 238.86 51.22 83.12 51.40
  Q 73.47 51.42 68.21 59.15
  L 68.37 52.49
  Q 71.65 43.77 79.55 41.55
  Q 82.14 40.82 94.01 40.80
  Q 188.97 40.65 283.94 40.72
  C 292.71 40.72 298.71 40.64 304.21 46.27
  Q 308.08 50.24 306.75 57.17
  Z"
/>
<path fill="#ededed" d="
  M 67.99 51.18
  Q 67.90 52.03 68.37 52.49
  L 68.21 59.15
  Q 65.75 63.74 66.51 69.64
  C 65.50 72.68 64.44 78.98 65.78 82.33
  Q 61.83 84.06 60.28 87.40
  Q 59.27 89.59 59.67 94.34
  Q 60.43 103.27 61.08 112.22
  L 54.18 113.35
  C 54.28 92.28 55.03 74.63 63.92 57.21
  Q 65.56 54.00 67.99 51.18
  Z"
/>
<path fill="#cacacf" d="
  M 306.75 57.17
  Q 306.96 58.01 307.84 59.02
  Q 309.96 63.80 309.15 69.42
  Q 302.09 63.39 292.96 63.39
  Q 188.14 63.35 83.33 63.44
  C 75.90 63.45 72.55 65.39 66.51 69.64
  Q 65.75 63.74 68.21 59.15
  Q 73.47 51.42 83.12 51.40
  Q 238.86 51.22 294.25 51.38
  Q 300.95 51.40 306.75 57.17
  Z"
/>
<path fill="#ededed" d="
  M 316.19 69.94
  L 309.81 70.99
  L 309.15 69.42
  Q 309.96 63.80 307.84 59.02
  L 308.26 52.81
  Q 314.11 60.62 316.19 69.94
  Z"
/>
<path fill="#d9d9d9" d="
  M 309.15 69.42
  L 309.81 70.99
  L 309.04 71.11
  Q 306.02 69.38 301.00 69.38
  Q 239.73 69.36 178.45 69.36
  Q 172.66 69.36 170.37 70.10
  C 165.84 71.56 161.25 74.17 159.95 78.85
  A 1.59 1.57 -81.8 0 1 158.42 80.01
  Q 120.06 79.92 74.75 80.09
  Q 69.91 80.11 65.78 82.33
  C 64.44 78.98 65.50 72.68 66.51 69.64
  C 72.55 65.39 75.90 63.45 83.33 63.44
  Q 188.14 63.35 292.96 63.39
  Q 302.09 63.39 309.15 69.42
  Z"
/>
<path fill="#000000" d="
  M 321.71 138.39
  L 312.05 139.99
  L 172.40 163.16
  L 123.60 171.59
  L 92.47 176.46
  L 72.53 179.71
  L 67.22 180.57
  L 57.55 182.17
  L 36.61 185.63
  A 0.44 0.44 0.0 0 1 36.11 185.27
  L 25.08 118.72
  A 0.54 0.54 0.0 0 1 25.52 118.10
  L 54.18 113.35
  L 61.08 112.22
  L 309.04 71.11
  L 309.81 70.99
  L 316.19 69.94
  L 339.67 66.05
  A 0.30 0.30 0.0 0 1 340.02 66.30
  L 351.08 133.01
  A 0.50 0.49 -9.2 0 1 350.66 133.58
  L 321.71 138.39
  Z
  M 314.71 94.34
  Q 304.35 96.06 303.96 96.14
  Q 303.27 96.29 303.35 96.75
  L 304.01 100.71
  Q 304.11 101.29 304.69 101.20
  L 311.70 100.04
  A 0.59 0.59 0.0 0 1 312.38 100.53
  L 315.48 119.23
  Q 315.57 119.74 316.08 119.72
  Q 316.99 119.70 318.85 119.39
  Q 320.72 119.09 321.58 118.81
  Q 322.07 118.66 321.99 118.15
  L 318.90 99.45
  A 0.59 0.59 0.0 0 1 319.39 98.77
  L 326.40 97.61
  Q 326.97 97.50 326.88 96.92
  L 326.23 92.96
  Q 326.16 92.50 325.46 92.58
  Q 325.06 92.63 314.71 94.34
  Z
  M 280.37 113.16
  C 281.63 119.93 285.99 124.53 293.31 123.95
  C 299.04 123.49 303.48 120.61 304.40 114.85
  Q 304.45 114.54 304.13 114.49
  L 298.68 113.68
  Q 298.36 113.63 298.32 113.95
  Q 297.56 119.07 292.43 118.67
  C 288.89 118.39 287.58 114.96 287.02 111.92
  C 286.45 108.88 286.43 105.20 289.64 103.67
  Q 294.28 101.45 296.83 105.95
  Q 296.98 106.24 297.27 106.08
  L 302.06 103.36
  Q 302.34 103.20 302.18 102.93
  C 299.25 97.88 294.07 96.79 288.56 98.43
  C 281.52 100.52 279.11 106.38 280.37 113.16
  Z
  M 257.69 116.73
  Q 259.18 125.33 259.71 128.53
  Q 259.81 129.15 260.43 129.04
  L 279.11 125.95
  A 0.46 0.46 0.0 0 0 279.48 125.42
  L 278.79 121.25
  Q 278.72 120.82 278.29 120.89
  L 266.03 122.93
  Q 265.47 123.02 265.39 122.49
  L 264.72 118.49
  A 0.53 0.52 81.2 0 1 265.15 117.89
  L 274.50 116.27
  Q 274.89 116.20 274.78 115.53
  Q 274.78 115.52 274.49 113.83
  Q 274.20 112.14 274.20 112.14
  Q 274.07 111.47 273.68 111.54
  L 264.33 113.15
  A 0.53 0.52 79.2 0 1 263.72 112.73
  L 263.01 108.73
  Q 262.91 108.21 263.47 108.10
  L 275.70 105.91
  Q 276.13 105.83 276.05 105.41
  L 275.31 101.25
  A 0.46 0.46 0.0 0 0 274.78 100.87
  L 256.14 104.23
  Q 255.52 104.33 255.63 104.95
  Q 256.21 108.14 257.69 116.73
  Z
  M 243.34 126.98
  C 240.20 127.35 239.38 124.38 239.54 121.44
  A 0.31 0.31 0.0 0 0 239.11 121.14
  L 233.44 123.52
  Q 233.24 123.61 233.25 123.82
  C 233.58 130.26 237.68 133.12 243.63 132.19
  C 250.20 131.16 254.28 127.71 253.09 120.42
  Q 251.82 112.64 250.60 105.32
  Q 250.55 105.00 250.22 105.05
  L 244.31 106.03
  Q 243.98 106.09 244.04 106.41
  Q 246.47 120.45 246.66 122.55
  Q 247.02 126.55 243.34 126.98
  Z
  M 229.3824 119.5660
  A 11.27 11.27 0.0 0 0 216.3586 110.3787
  L 214.2696 110.7395
  A 11.27 11.27 0.0 0 0 205.0823 123.7633
  L 205.6576 127.0940
  A 11.27 11.27 0.0 0 0 218.6814 136.2813
  L 220.7704 135.9205
  A 11.27 11.27 0.0 0 0 229.9577 122.8967
  L 229.3824 119.5660
  Z
  M 187.92 131.69
  L 190.79 131.21
  Q 191.33 131.12 191.67 131.54
  L 198.02 139.15
  Q 198.19 139.36 198.45 139.32
  L 205.24 138.19
  A 0.08 0.07 -24.1 0 0 205.29 138.07
  L 197.51 129.50
  A 0.34 0.33 -37.1 0 1 197.59 128.98
  C 201.31 126.76 202.09 122.35 200.21 118.69
  Q 198.02 114.44 191.99 114.82
  Q 189.66 114.96 178.68 116.95
  Q 178.39 117.00 178.44 117.29
  L 182.42 141.32
  Q 182.52 141.95 183.15 141.85
  L 188.52 140.96
  A 0.43 0.42 80.4 0 0 188.86 140.47
  L 187.50 132.27
  A 0.51 0.51 0.0 0 1 187.92 131.69
  Z
  M 162.84 136.71
  Q 165.51 136.22 167.41 135.89
  C 172.70 135.00 176.76 131.63 175.56 125.72
  C 174.72 121.58 171.59 118.79 167.31 119.05
  Q 163.62 119.27 153.61 121.13
  Q 153.09 121.23 153.18 121.75
  L 157.17 145.84
  A 0.33 0.32 -9.5 0 0 157.55 146.11
  L 163.43 145.14
  Q 163.71 145.09 163.66 144.81
  L 162.42 137.31
  Q 162.34 136.80 162.84 136.71
  Z
  M 120.89 126.49
  Q 119.82 126.67 118.90 126.91
  Q 118.39 127.05 118.35 127.58
  L 116.94 146.54
  Q 116.80 148.43 116.07 146.69
  L 108.64 128.98
  Q 108.45 128.55 107.99 128.63
  L 103.41 129.38
  Q 103.00 129.45 103.18 129.83
  L 114.19 152.78
  Q 114.42 153.27 114.95 153.18
  L 119.78 152.38
  Q 120.31 152.29 120.37 151.75
  Q 121.41 142.39 121.66 133.23
  Q 121.67 132.62 121.91 132.58
  Q 122.14 132.54 122.36 133.12
  Q 125.56 141.70 129.57 150.22
  Q 129.80 150.71 130.33 150.62
  L 135.16 149.82
  Q 135.69 149.73 135.75 149.19
  L 138.74 123.91
  Q 138.78 123.50 138.37 123.56
  L 133.80 124.34
  Q 133.34 124.41 133.29 124.88
  L 132.00 144.04
  Q 131.87 145.92 131.13 144.18
  L 123.65 126.70
  Q 123.45 126.21 122.92 126.24
  Q 121.96 126.31 120.89 126.49
  Z
  M 99.17 141.17
  A 0.40 0.40 0.0 0 0 98.70 140.84
  L 88.87 142.47
  A 0.40 0.40 0.0 0 1 88.40 142.14
  L 87.52 136.75
  A 0.40 0.40 0.0 0 1 87.84 136.29
  L 100.56 134.19
  A 0.40 0.40 0.0 0 0 100.89 133.73
  L 100.33 130.33
  A 0.40 0.40 0.0 0 0 99.87 130.00
  L 81.87 132.97
  A 0.40 0.40 0.0 0 0 81.55 133.43
  L 85.55 157.62
  A 0.40 0.40 0.0 0 0 86.01 157.94
  L 104.52 154.89
  A 0.40 0.40 0.0 0 0 104.84 154.43
  L 104.28 150.99
  A 0.40 0.40 0.0 0 0 103.82 150.67
  L 90.55 152.86
  A 0.40 0.40 0.0 0 1 90.09 152.54
  L 89.18 146.99
  A 0.40 0.40 0.0 0 1 89.50 146.53
  L 99.38 144.91
  A 0.40 0.40 0.0 0 0 99.71 144.45
  L 99.17 141.17
  Z
  M 68.15 146.95
  Q 65.76 144.11 59.70 136.98
  A 0.76 0.75 64.8 0 0 59.00 136.72
  L 54.05 137.54
  Q 53.48 137.64 53.57 138.21
  L 57.59 162.41
  Q 57.63 162.68 57.89 162.63
  L 61.96 161.96
  Q 62.31 161.90 62.25 161.55
  L 59.34 143.97
  Q 59.23 143.30 59.64 143.84
  Q 61.90 146.80 64.44 149.81
  Q 66.83 152.66 72.89 159.78
  A 0.76 0.75 64.8 0 0 73.59 160.04
  L 78.54 159.22
  Q 79.11 159.12 79.02 158.55
  L 75.00 134.35
  Q 74.96 134.08 74.70 134.13
  L 70.63 134.80
  Q 70.28 134.86 70.34 135.21
  L 73.25 152.79
  Q 73.36 153.46 72.95 152.92
  Q 70.69 149.96 68.15 146.95
  Z"
/>
<path fill="#f8b01b" d="
  M 309.04 71.11
  L 61.08 112.22
  Q 60.43 103.27 59.67 94.34
  Q 59.27 89.59 60.28 87.40
  Q 61.83 84.06 65.78 82.33
  Q 69.91 80.11 74.75 80.09
  Q 120.06 79.92 158.42 80.01
  A 1.59 1.57 -81.8 0 0 159.95 78.85
  C 161.25 74.17 165.84 71.56 170.37 70.10
  Q 172.66 69.36 178.45 69.36
  Q 239.73 69.36 301.00 69.38
  Q 306.02 69.38 309.04 71.11
  Z"
/>
<path fill="#fefefe" d="
  M 318.85 119.39
  Q 316.99 119.70 316.08 119.72
  Q 315.57 119.74 315.48 119.23
  L 312.38 100.53
  A 0.59 0.59 0.0 0 0 311.70 100.04
  L 304.69 101.20
  Q 304.11 101.29 304.01 100.71
  L 303.35 96.75
  Q 303.27 96.29 303.96 96.14
  Q 304.35 96.06 314.71 94.34
  Q 325.06 92.63 325.46 92.58
  Q 326.16 92.50 326.23 92.96
  L 326.88 96.92
  Q 326.97 97.50 326.40 97.61
  L 319.39 98.77
  A 0.59 0.59 0.0 0 0 318.90 99.45
  L 321.99 118.15
  Q 322.07 118.66 321.58 118.81
  Q 320.72 119.09 318.85 119.39
  Z"
/>
<path fill="#fefefe" d="
  M 287.02 111.92
  C 287.58 114.96 288.89 118.39 292.43 118.67
  Q 297.56 119.07 298.32 113.95
  Q 298.36 113.63 298.68 113.68
  L 304.13 114.49
  Q 304.45 114.54 304.40 114.85
  C 303.48 120.61 299.04 123.49 293.31 123.95
  C 285.99 124.53 281.63 119.93 280.37 113.16
  C 279.11 106.38 281.52 100.52 288.56 98.43
  C 294.07 96.79 299.25 97.88 302.18 102.93
  Q 302.34 103.20 302.06 103.36
  L 297.27 106.08
  Q 296.98 106.24 296.83 105.95
  Q 294.28 101.45 289.64 103.67
  C 286.43 105.20 286.45 108.88 287.02 111.92
  Z"
/>
<path fill="#fefefe" d="
  M 274.49 113.83
  Q 274.78 115.52 274.78 115.53
  Q 274.89 116.20 274.50 116.27
  L 265.15 117.89
  A 0.53 0.52 81.2 0 0 264.72 118.49
  L 265.39 122.49
  Q 265.47 123.02 266.03 122.93
  L 278.29 120.89
  Q 278.72 120.82 278.79 121.25
  L 279.48 125.42
  A 0.46 0.46 0.0 0 1 279.11 125.95
  L 260.43 129.04
  Q 259.81 129.15 259.71 128.53
  Q 259.18 125.33 257.69 116.73
  Q 256.21 108.14 255.63 104.95
  Q 255.52 104.33 256.14 104.23
  L 274.78 100.87
  A 0.46 0.46 0.0 0 1 275.31 101.25
  L 276.05 105.41
  Q 276.13 105.83 275.70 105.91
  L 263.47 108.10
  Q 262.91 108.21 263.01 108.73
  L 263.72 112.73
  A 0.53 0.52 79.2 0 0 264.33 113.15
  L 273.68 111.54
  Q 274.07 111.47 274.20 112.14
  Q 274.20 112.14 274.49 113.83
  Z"
/>
<path fill="#fefefe" d="
  M 239.54 121.44
  C 239.38 124.38 240.20 127.35 243.34 126.98
  Q 247.02 126.55 246.66 122.55
  Q 246.47 120.45 244.04 106.41
  Q 243.98 106.09 244.31 106.03
  L 250.22 105.05
  Q 250.55 105.00 250.60 105.32
  Q 251.82 112.64 253.09 120.42
  C 254.28 127.71 250.20 131.16 243.63 132.19
  C 237.68 133.12 233.58 130.26 233.25 123.82
  Q 233.24 123.61 233.44 123.52
  L 239.11 121.14
  A 0.31 0.31 0.0 0 1 239.54 121.44
  Z"
/>
<path fill="#fefefe" d="
  M 229.9577 122.8967
  A 11.27 11.27 0.0 0 1 220.7704 135.9205
  L 218.6814 136.2813
  A 11.27 11.27 0.0 0 1 205.6576 127.0940
  L 205.0823 123.7633
  A 11.27 11.27 0.0 0 1 214.2696 110.7395
  L 216.3586 110.3787
  A 11.27 11.27 0.0 0 1 229.3824 119.5660
  L 229.9577 122.8967
  Z
  M 218.8202 131.2962
  A 8.07 5.84 80.8 0 0 223.2949 122.3963
  A 8.07 5.84 80.8 0 0 216.2398 115.3638
  A 8.07 5.84 80.8 0 0 211.7651 124.2637
  A 8.07 5.84 80.8 0 0 218.8202 131.2962
  Z"
/>
<path fill="#fefefe" d="
  M 187.50 132.27
  L 188.86 140.47
  A 0.43 0.42 80.4 0 1 188.52 140.96
  L 183.15 141.85
  Q 182.52 141.95 182.42 141.32
  L 178.44 117.29
  Q 178.39 117.00 178.68 116.95
  Q 189.66 114.96 191.99 114.82
  Q 198.02 114.44 200.21 118.69
  C 202.09 122.35 201.31 126.76 197.59 128.98
  A 0.34 0.33 -37.1 0 0 197.51 129.50
  L 205.29 138.07
  A 0.08 0.07 -24.1 0 1 205.24 138.19
  L 198.45 139.32
  Q 198.19 139.36 198.02 139.15
  L 191.67 131.54
  Q 191.33 131.12 190.79 131.21
  L 187.92 131.69
  A 0.51 0.51 0.0 0 0 187.50 132.27
  Z
  M 185.66 121.23
  L 186.57 126.75
  A 0.42 0.42 0.0 0 0 187.06 127.10
  L 191.70 126.33
  A 3.43 2.81 -9.4 0 0 194.63 123.00
  L 194.50 122.19
  A 3.43 2.81 -9.4 0 0 190.65 119.97
  L 186.01 120.74
  A 0.42 0.42 0.0 0 0 185.66 121.23
  Z"
/>
<ellipse fill="#000000" cx="0.00" cy="0.00" transform="translate(217.53,123.33) rotate(80.8)" rx="8.07" ry="5.84"/>
<path fill="#fefefe" d="
  M 162.42 137.31
  L 163.66 144.81
  Q 163.71 145.09 163.43 145.14
  L 157.55 146.11
  A 0.33 0.32 -9.5 0 1 157.17 145.84
  L 153.18 121.75
  Q 153.09 121.23 153.61 121.13
  Q 163.62 119.27 167.31 119.05
  C 171.59 118.79 174.72 121.58 175.56 125.72
  C 176.76 131.63 172.70 135.00 167.41 135.89
  Q 165.51 136.22 162.84 136.71
  Q 162.34 136.80 162.42 137.31
  Z
  M 160.45 125.30
  L 161.46 131.51
  A 0.33 0.33 0.0 0 0 161.84 131.79
  L 166.15 131.08
  A 3.54 3.29 -9.3 0 0 169.12 127.26
  L 169.06 126.89
  A 3.54 3.29 -9.3 0 0 165.03 124.21
  L 160.72 124.92
  A 0.33 0.33 0.0 0 0 160.45 125.30
  Z"
/>
<path fill="#000000" d="
  M 185.66 121.23
  A 0.42 0.42 0.0 0 1 186.01 120.74
  L 190.65 119.97
  A 3.43 2.81 -9.4 0 1 194.50 122.19
  L 194.63 123.00
  A 3.43 2.81 -9.4 0 1 191.70 126.33
  L 187.06 127.10
  A 0.42 0.42 0.0 0 1 186.57 126.75
  L 185.66 121.23
  Z"
/>
<path fill="#fefefe" d="
  M 121.91 132.58
  Q 121.67 132.62 121.66 133.23
  Q 121.41 142.39 120.37 151.75
  Q 120.31 152.29 119.78 152.38
  L 114.95 153.18
  Q 114.42 153.27 114.19 152.78
  L 103.18 129.83
  Q 103.00 129.45 103.41 129.38
  L 107.99 128.63
  Q 108.45 128.55 108.64 128.98
  L 116.07 146.69
  Q 116.80 148.43 116.94 146.54
  L 118.35 127.58
  Q 118.39 127.05 118.90 126.91
  Q 119.82 126.67 120.89 126.49
  Q 121.96 126.31 122.92 126.24
  Q 123.45 126.21 123.65 126.70
  L 131.13 144.18
  Q 131.87 145.92 132.00 144.04
  L 133.29 124.88
  Q 133.34 124.41 133.80 124.34
  L 138.37 123.56
  Q 138.78 123.50 138.74 123.91
  L 135.75 149.19
  Q 135.69 149.73 135.16 149.82
  L 130.33 150.62
  Q 129.80 150.71 129.57 150.22
  Q 125.56 141.70 122.36 133.12
  Q 122.14 132.54 121.91 132.58
  Z"
/>
<path fill="#000000" d="
  M 160.45 125.30
  A 0.33 0.33 0.0 0 1 160.72 124.92
  L 165.03 124.21
  A 3.54 3.29 -9.3 0 1 169.06 126.89
  L 169.12 127.26
  A 3.54 3.29 -9.3 0 1 166.15 131.08
  L 161.84 131.79
  A 0.33 0.33 0.0 0 1 161.46 131.51
  L 160.45 125.30
  Z"
/>
<path fill="#fefefe" d="
  M 99.17 141.17
  L 99.71 144.45
  A 0.40 0.40 0.0 0 1 99.38 144.91
  L 89.50 146.53
  A 0.40 0.40 0.0 0 0 89.18 146.99
  L 90.09 152.54
  A 0.40 0.40 0.0 0 0 90.55 152.86
  L 103.82 150.67
  A 0.40 0.40 0.0 0 1 104.28 150.99
  L 104.84 154.43
  A 0.40 0.40 0.0 0 1 104.52 154.89
  L 86.01 157.94
  A 0.40 0.40 0.0 0 1 85.55 157.62
  L 81.55 133.43
  A 0.40 0.40 0.0 0 1 81.87 132.97
  L 99.87 130.00
  A 0.40 0.40 0.0 0 1 100.33 130.33
  L 100.89 133.73
  A 0.40 0.40 0.0 0 1 100.56 134.19
  L 87.84 136.29
  A 0.40 0.40 0.0 0 0 87.52 136.75
  L 88.40 142.14
  A 0.40 0.40 0.0 0 0 88.87 142.47
  L 98.70 140.84
  A 0.40 0.40 0.0 0 1 99.17 141.17
  Z"
/>
<path fill="#fefefe" d="
  M 64.44 149.81
  Q 61.90 146.80 59.64 143.84
  Q 59.23 143.30 59.34 143.97
  L 62.25 161.55
  Q 62.31 161.90 61.96 161.96
  L 57.89 162.63
  Q 57.63 162.68 57.59 162.41
  L 53.57 138.21
  Q 53.48 137.64 54.05 137.54
  L 59.00 136.72
  A 0.76 0.75 64.8 0 1 59.70 136.98
  Q 65.76 144.11 68.15 146.95
  Q 70.69 149.96 72.95 152.92
  Q 73.36 153.46 73.25 152.79
  L 70.34 135.21
  Q 70.28 134.86 70.63 134.80
  L 74.70 134.13
  Q 74.96 134.08 75.00 134.35
  L 79.02 158.55
  Q 79.11 159.12 78.54 159.22
  L 73.59 160.04
  A 0.76 0.75 64.8 0 1 72.89 159.78
  Q 66.83 152.66 64.44 149.81
  Z"
/>
<path fill="#ededed" d="
  M 321.71 138.39
  C 322.28 161.38 320.17 182.72 311.94 203.39
  C 311.26 205.10 309.43 204.60 307.83 205.00
  L 283.01 205.00
  Q 292.74 198.95 299.36 189.59
  Q 310.34 186.22 309.03 174.28
  L 312.05 139.99
  L 321.71 138.39
  Z"
/>
<path fill="#f5a117" d="
  M 312.05 139.99
  L 309.03 174.28
  Q 305.04 170.46 300.54 167.69
  Q 296.18 165.00 290.68 165.02
  Q 291.24 163.00 291.07 161.11
  A 0.65 0.65 0.0 0 1 291.75 160.40
  Q 295.08 160.61 294.46 163.60
  A 0.55 0.55 0.0 0 0 294.95 164.26
  L 297.80 164.47
  A 0.64 0.64 0.0 0 0 298.49 163.85
  Q 298.67 156.51 291.54 156.63
  Q 290.82 156.64 290.88 155.92
  L 291.11 152.79
  A 0.66 0.65 11.3 0 0 290.65 152.12
  Q 289.89 151.89 289.07 152.07
  Q 286.53 150.87 287.02 156.06
  Q 287.07 156.57 286.57 156.72
  Q 286.22 156.82 285.86 156.83
  C 281.88 156.97 279.63 159.55 279.59 163.55
  C 276.97 163.79 274.32 164.12 271.70 164.11
  Q 210.49 163.85 180.77 163.88
  Q 176.09 163.88 172.40 163.16
  L 312.05 139.99
  Z"
/>
<path fill="#fefefe" d="
  M 289.07 152.07
  L 289.20 183.90
  Q 288.43 184.11 287.58 183.95
  Q 286.96 183.83 287.00 183.20
  L 287.24 180.08
  Q 287.28 179.51 286.73 179.35
  Q 285.77 179.06 285.00 179.01
  Q 280.79 178.73 279.77 174.83
  L 279.58 172.38
  Q 279.52 171.59 280.31 171.65
  L 283.02 171.85
  Q 283.54 171.89 283.41 172.40
  C 282.87 174.58 284.37 175.83 286.37 175.55
  Q 286.90 175.48 286.94 174.94
  L 287.29 170.16
  Q 287.34 169.57 286.78 169.41
  C 283.39 168.39 280.45 167.92 279.59 163.55
  C 279.63 159.55 281.88 156.97 285.86 156.83
  Q 286.22 156.82 286.57 156.72
  Q 287.07 156.57 287.02 156.06
  Q 286.53 150.87 289.07 152.07
  Z
  M 287.13 165.00
  L 287.11 160.84
  A 0.45 0.45 0.0 0 0 286.66 160.39
  L 286.49 160.39
  A 3.08 2.36 -0.3 0 0 283.42 162.77
  L 283.42 163.11
  A 3.08 2.36 -0.3 0 0 286.51 165.45
  L 286.68 165.45
  A 0.45 0.45 0.0 0 0 287.13 165.00
  Z"
/>
<path fill="#ededed" d="
  M 290.68 165.02
  Q 291.86 166.62 294.53 167.85
  Q 296.97 168.98 297.69 170.12
  C 300.44 174.49 296.39 179.37 291.69 179.36
  Q 291.18 179.35 291.11 179.86
  Q 290.82 181.77 291.15 183.49
  Q 290.89 184.20 289.20 183.90
  L 289.07 152.07
  Q 289.89 151.89 290.65 152.12
  A 0.66 0.65 11.3 0 1 291.11 152.79
  L 290.88 155.92
  Q 290.82 156.64 291.54 156.63
  Q 298.67 156.51 298.49 163.85
  A 0.64 0.64 0.0 0 1 297.80 164.47
  L 294.95 164.26
  A 0.55 0.55 0.0 0 1 294.46 163.60
  Q 295.08 160.61 291.75 160.40
  A 0.65 0.65 0.0 0 0 291.07 161.11
  Q 291.24 163.00 290.68 165.02
  Z
  M 291.03 171.23
  L 291.03 175.07
  A 0.49 0.49 0.0 0 0 291.52 175.56
  L 291.73 175.56
  A 2.76 2.34 0.0 0 0 294.49 173.22
  L 294.49 173.08
  A 2.76 2.34 -0.0 0 0 291.73 170.74
  L 291.52 170.74
  A 0.49 0.49 0.0 0 0 291.03 171.23
  Z"
/>
<path fill="#f5a117" d="
  M 287.13 165.00
  A 0.45 0.45 0.0 0 1 286.68 165.45
  L 286.51 165.45
  A 3.08 2.36 -0.3 0 1 283.42 163.11
  L 283.42 162.77
  A 3.08 2.36 -0.3 0 1 286.49 160.39
  L 286.66 160.39
  A 0.45 0.45 0.0 0 1 287.11 160.84
  L 287.13 165.00
  Z"
/>
<path fill="#eb8a11" d="
  M 172.40 163.16
  Q 176.09 163.88 180.77 163.88
  Q 210.49 163.85 271.70 164.11
  C 274.32 164.12 276.97 163.79 279.59 163.55
  C 280.45 167.92 283.39 168.39 286.78 169.41
  Q 287.34 169.57 287.29 170.16
  L 286.94 174.94
  Q 286.90 175.48 286.37 175.55
  C 284.37 175.83 282.87 174.58 283.41 172.40
  Q 283.54 171.89 283.02 171.85
  L 280.31 171.65
  Q 279.52 171.59 279.58 172.38
  L 279.77 174.83
  C 273.46 173.74 267.21 172.63 260.83 172.29
  Q 244.72 171.42 226.75 171.56
  Q 198.84 171.76 123.60 171.59
  L 172.40 163.16
  Z"
/>
<path fill="#eb8a11" d="
  M 309.03 174.28
  Q 310.34 186.22 299.36 189.59
  L 295.30 190.51
  Q 293.99 186.32 291.15 183.49
  Q 290.82 181.77 291.11 179.86
  Q 291.18 179.35 291.69 179.36
  C 296.39 179.37 300.44 174.49 297.69 170.12
  Q 296.97 168.98 294.53 167.85
  Q 291.86 166.62 290.68 165.02
  Q 296.18 165.00 300.54 167.69
  Q 305.04 170.46 309.03 174.28
  Z"
/>
<path fill="#eb8a11" d="
  M 291.03 171.23
  A 0.49 0.49 0.0 0 1 291.52 170.74
  L 291.73 170.74
  A 2.76 2.34 -0.0 0 1 294.49 173.08
  L 294.49 173.22
  A 2.76 2.34 -0.0 0 1 291.73 175.56
  L 291.52 175.56
  A 0.49 0.49 0.0 0 1 291.03 175.07
  L 291.03 171.23
  Z"
/>
<path fill="#d9730e" d="
  M 123.60 171.59
  Q 198.84 171.76 226.75 171.56
  Q 244.72 171.42 260.83 172.29
  C 267.21 172.63 273.46 173.74 279.77 174.83
  Q 280.79 178.73 285.00 179.01
  Q 285.77 179.06 286.73 179.35
  Q 287.28 179.51 287.24 180.08
  L 287.00 183.20
  Q 286.96 183.83 287.58 183.95
  Q 288.43 184.11 289.20 183.90
  Q 290.89 184.20 291.15 183.49
  Q 293.99 186.32 295.30 190.51
  L 81.72 190.50
  C 83.28 183.79 88.60 180.63 92.47 176.46
  L 123.60 171.59
  Z"
/>
<path fill="#eb8a11" d="
  M 92.47 176.46
  C 88.60 180.63 83.28 183.79 81.72 190.50
  Q 81.53 190.55 81.21 190.51
  Q 74.95 189.90 70.44 186.12
  L 72.53 179.71
  L 92.47 176.46
  Z"
/>
<path fill="#f5a117" d="
  M 72.53 179.71
  L 70.44 186.12
  Q 67.71 184.16 67.22 180.57
  L 72.53 179.71
  Z"
/>
<path fill="#ededed" d="
  M 67.22 180.57
  Q 67.71 184.16 70.44 186.12
  Q 74.95 189.90 81.21 190.51
  Q 85.69 197.14 92.77 199.98
  Q 96.61 201.52 104.13 203.61
  Q 104.43 203.69 104.70 204.00
  Q 105.01 204.34 105.48 204.40
  L 110.38 205.00
  L 64.06 205.00
  Q 59.37 193.98 57.55 182.17
  L 67.22 180.57
  Z"
/>
<path fill="#d9d9d9" d="
  M 299.36 189.59
  Q 292.74 198.95 283.01 205.00
  L 110.38 205.00
  L 105.48 204.40
  Q 105.01 204.34 104.70 204.00
  Q 104.43 203.69 104.13 203.61
  Q 96.61 201.52 92.77 199.98
  Q 85.69 197.14 81.21 190.51
  Q 81.53 190.55 81.72 190.50
  L 295.30 190.51
  L 299.36 189.59
  Z"
/>
</svg>
